Coordinates
version=1
nRows=22
nColumns=24
inDegrees=yes

Units are S.I. units (second, meters, Newtons, ...)
Angles are in degrees.

endheader
time	pelvis_tilt	pelvis_list	pelvis_rotation	pelvis_tx	pelvis_ty	pelvis_tz	hip_flexion_r	hip_adduction_r	hip_rotation_r	knee_angle_r	ankle_angle_r	subtalar_angle_r	mtp_angle_r	hip_flexion_l	hip_adduction_l	hip_rotation_l	knee_angle_l	ankle_angle_l	subtalar_angle_l	mtp_angle_l	lumbar_extension	lumbar_bending	lumbar_rotation
      3.09500000	     -7.58530021	      5.87057106	    356.28308021	     -0.67456840	      1.35578449	     -0.96167807	      2.30000000	    -10.86000000	      9.81000000	     -4.39000000	      0.00000000	      0.00000000	      0.00000000	      0.71000000	      5.21000000	     -0.08000000	     -1.04000000	      0.00000000	      0.00000000	      0.00000000	     -7.93080371	      3.18974954	     -4.79094138
      3.10000000	     -7.62647125	      5.84938005	    356.32865914	     -0.66927741	      1.35512461	     -0.96233067	      2.30000000	    -10.86000000	      9.81000000	     -4.39000000	      0.00000000	      0.00000000	      0.00000000	      0.71000000	      5.21000000	     -0.08000000	     -1.04000000	      0.00000000	      0.00000000	      0.00000000	     -7.88489924	      3.18814795	     -4.79527611
      3.10500000	     -7.67349476	      5.84511547	    356.38160933	     -0.66396594	      1.35452905	     -0.96300890	      2.30000000	    -10.86000000	      9.81000000	     -4.39000000	      0.00000000	      0.00000000	      0.00000000	      0.71000000	      5.21000000	     -0.08000000	     -1.04000000	      0.00000000	      0.00000000	      0.00000000	     -7.83674590	      3.16702833	     -4.80050584
      3.11000000	     -7.72283536	      5.83227714	    356.43623592	     -0.65861191	      1.35397783	     -0.96369403	      2.30000000	    -10.86000000	      9.81000000	     -4.39000000	      0.00000000	      0.00000000	      0.00000000	      0.71000000	      5.21000000	     -0.08000000	     -1.04000000	      0.00000000	      0.00000000	      0.00000000	     -7.78308658	      3.15354066	     -4.79945373
      3.11500000	     -7.74973851	      5.83087708	    356.49454695	     -0.65321223	      1.35347681	     -0.96439374	      2.30000000	    -10.86000000	      9.81000000	     -4.39000000	      0.00000000	      0.00000000	      0.00000000	      0.71000000	      5.21000000	     -0.08000000	     -1.04000000	      0.00000000	      0.00000000	      0.00000000	     -7.74566741	      3.12534981	     -4.80269841
      3.12000000	     -7.81203254	      5.82609357	    356.55357396	     -0.64780414	      1.35301633	     -0.96509976	      2.30000000	    -10.86000000	      9.81000000	     -4.39000000	      0.00000000	      0.00000000	      0.00000000	      0.71000000	      5.21000000	     -0.08000000	     -1.04000000	      0.00000000	      0.00000000	      0.00000000	     -7.67710152	      3.10217569	     -4.79921245
      3.12500000	     -7.84929561	      5.82956663	    356.61147434	     -0.64235430	      1.35262781	     -0.96580735	      2.30000000	    -10.86000000	      9.81000000	     -4.39000000	      0.00000000	      0.00000000	      0.00000000	      0.71000000	      5.21000000	     -0.08000000	     -1.04000000	      0.00000000	      0.00000000	      0.00000000	     -7.62839052	      3.06723198	     -4.79911543
      3.13000000	     -7.88534862	      5.83849838	    356.66929915	     -0.63689294	      1.35231264	     -0.96652114	      2.30000000	    -10.86000000	      9.81000000	     -4.39000000	      0.00000000	      0.00000000	      0.00000000	      0.71000000	      5.21000000	     -0.08000000	     -1.04000000	      0.00000000	      0.00000000	      0.00000000	     -7.58799377	      3.02721446	     -4.80078690
      3.13500000	     -7.91550485	      5.85676593	    356.72235782	     -0.63139300	      1.35209448	     -0.96722310	      2.30000000	    -10.86000000	      9.81000000	     -4.39000000	      0.00000000	      0.00000000	      0.00000000	      0.71000000	      5.21000000	     -0.08000000	     -1.04000000	      0.00000000	      0.00000000	      0.00000000	     -7.54480372	      2.97349310	     -4.79593992
      3.14000000	     -7.93143367	      5.87276986	    356.77320958	     -0.62588494	      1.35197566	     -0.96792592	      2.30000000	    -10.86000000	      9.81000000	     -4.39000000	      0.00000000	      0.00000000	      0.00000000	      0.71000000	      5.21000000	     -0.08000000	     -1.04000000	      0.00000000	      0.00000000	      0.00000000	     -7.52462463	      2.92301630	     -4.79368545
      3.14500000	     -7.94893470	      5.90271637	    356.82280554	     -0.62035416	      1.35193100	     -0.96862899	      2.30000000	    -10.86000000	      9.81000000	     -4.39000000	      0.00000000	      0.00000000	      0.00000000	      0.71000000	      5.21000000	     -0.08000000	     -1.04000000	      0.00000000	      0.00000000	      0.00000000	     -7.49614504	      2.85673131	     -4.78782930
      3.15000000	     -7.95360663	      5.92790981	    356.87040944	     -0.61481994	      1.35199885	     -0.96933076	      2.30000000	    -10.86000000	      9.81000000	     -4.39000000	      0.00000000	      0.00000000	      0.00000000	      0.71000000	      5.21000000	     -0.08000000	     -1.04000000	      0.00000000	      0.00000000	      0.00000000	     -7.48965134	      2.79570749	     -4.77948956
      3.15500000	     -7.94531498	      5.97540032	    356.91848325	     -0.60927678	      1.35219494	     -0.97003996	      2.30000000	    -10.86000000	      9.81000000	     -4.39000000	      0.00000000	      0.00000000	      0.00000000	      0.71000000	      5.21000000	     -0.08000000	     -1.04000000	      0.00000000	      0.00000000	      0.00000000	     -7.49386675	      2.71062899	     -4.76962637
      3.16000000	     -7.92949126	      6.00498698	    356.96541654	     -0.60371585	      1.35244548	     -0.97074054	      2.30000000	    -10.86000000	      9.81000000	     -4.39000000	      0.00000000	      0.00000000	      0.00000000	      0.71000000	      5.21000000	     -0.08000000	     -1.04000000	      0.00000000	      0.00000000	      0.00000000	     -7.50411710	      2.64149320	     -4.75011594
      3.16500000	     -7.91624382	      6.04275500	    357.01265536	     -0.59816748	      1.35279039	     -0.97145653	      2.30000000	    -10.86000000	      9.81000000	     -4.39000000	      0.00000000	      0.00000000	      0.00000000	      0.71000000	      5.21000000	     -0.08000000	     -1.04000000	      0.00000000	      0.00000000	      0.00000000	     -7.51478053	      2.56835586	     -4.72359743
      3.17000000	     -7.87776690	      6.08044646	    357.06349079	     -0.59262803	      1.35323566	     -0.97218179	      2.30000000	    -10.86000000	      9.81000000	     -4.39000000	      0.00000000	      0.00000000	      0.00000000	      0.71000000	      5.21000000	     -0.08000000	     -1.04000000	      0.00000000	      0.00000000	      0.00000000	     -7.55964777	      2.49397226	     -4.69685490
      3.17500000	     -7.84688158	      6.12360579	    357.11799405	     -0.58709149	      1.35374459	     -0.97291819	      2.30000000	    -10.86000000	      9.81000000	     -4.39000000	      0.00000000	      0.00000000	      0.00000000	      0.71000000	      5.21000000	     -0.08000000	     -1.04000000	      0.00000000	      0.00000000	      0.00000000	     -7.59051657	      2.41376721	     -4.65819460
      3.18000000	     -7.79857935	      6.17500635	    357.17542260	     -0.58156560	      1.35434619	     -0.97366811	      2.30000000	    -10.86000000	      9.81000000	     -4.39000000	      0.00000000	      0.00000000	      0.00000000	      0.71000000	      5.21000000	     -0.08000000	     -1.04000000	      0.00000000	      0.00000000	      0.00000000	     -7.63941753	      2.32472307	     -4.61484048
      3.18500000	     -7.75437495	      6.21220552	    357.23478204	     -0.57606371	      1.35496608	     -0.97442708	      2.30000000	    -10.86000000	      9.81000000	     -4.39000000	      0.00000000	      0.00000000	      0.00000000	      0.71000000	      5.21000000	     -0.08000000	     -1.04000000	      0.00000000	      0.00000000	      0.00000000	     -7.68878730	      2.25155617	     -4.55844842
      3.19000000	     -7.68739937	      6.26454634	    357.30130399	     -0.57057111	      1.35565315	     -0.97521121	      2.30000000	    -10.86000000	      9.81000000	     -4.39000000	      0.00000000	      0.00000000	      0.00000000	      0.71000000	      5.21000000	     -0.08000000	     -1.04000000	      0.00000000	      0.00000000	      0.00000000	     -7.75812183	      2.16270307	     -4.50391760
      3.19500000	     -7.63506198	      6.30709566	    357.37114398	     -0.56510395	      1.35636116	     -0.97600662	      2.30000000	    -10.86000000	      9.81000000	     -4.39000000	      0.00000000	      0.00000000	      0.00000000	      0.71000000	      5.21000000	     -0.08000000	     -1.04000000	      0.00000000	      0.00000000	      0.00000000	     -7.80935042	      2.08529145	     -4.43678325
      3.20000000	     -7.58969048	      6.35135336	    357.44683608	     -0.55968424	      1.35706594	     -0.97682453	      2.30000000	    -10.86000000	      9.81000000	     -4.39000000	      0.00000000	      0.00000000	      0.00000000	      0.71000000	      5.21000000	     -0.08000000	     -1.04000000	      0.00000000	      0.00000000	      0.00000000	     -7.86238495	      2.00829069	     -4.36941708
